<?xml version="1.0" encoding="UTF-8" standalone="no"?>
<!DOCTYPE svg PUBLIC "-//W3C//DTD SVG 1.1//EN" "http://www.w3.org/Graphics/SVG/1.1/DTD/svg11.dtd">
<svg xmlns:xl="http://www.w3.org/1999/xlink" version="1.1" xmlns:dc="http://purl.org/dc/elements/1.1/" xmlns="http://www.w3.org/2000/svg" viewBox="110.05034 92.54145 2995.693 680.5197" width="2995.693" height="680.5197">
  <defs/>
  <g id="Canvas_1" stroke="none" stroke-opacity="1" stroke-dasharray="none" fill="none" fill-opacity="1">
    <title>Canvas 1</title>
    <g id="Canvas_1_Layer_1">
      <title>Layer 1</title>
      <g id="Line_232">
        <path d="M 1059.0065 569.57346 L 1021.217 626.51945 L 978.085 691.5454" stroke="#927387" stroke-linecap="round" stroke-linejoin="round" stroke-width="1"/>
      </g>
      <g id="Line_230">
        <path d="M 1109.7777 569.69157 L 1146.9076 626.51945 L 1189.2273 690.9859" stroke="#927387" stroke-linecap="round" stroke-linejoin="round" stroke-width="1"/>
      </g>
      <g id="Line_226">
        <path d="M 1371.8829 570.1328 L 1408.9156 626.51945 L 1451.2297 690.985" stroke="#927387" stroke-linecap="round" stroke-linejoin="round" stroke-width="1"/>
      </g>
      <g id="Line_224">
        <path d="M 1346.331 574.5805 L 1346.0703 625.7094 L 1346.3515 686.5417" stroke="#927387" stroke-linecap="round" stroke-linejoin="round" stroke-width="1"/>
      </g>
      <g id="Line_222">
        <path d="M 716.1986 570.0144 L 753.9158 626.562 L 796.2213 690.98815" stroke="#718791" stroke-linecap="round" stroke-linejoin="round" stroke-width="1"/>
      </g>
      <g id="Line_220">
        <path d="M 690.7788 574.5805 L 691.0503 625.7094 L 690.75746 686.5417" stroke="#718791" stroke-linecap="round" stroke-linejoin="round" stroke-width="1"/>
      </g>
      <g id="Line_214">
        <path d="M 298.70205 574.0986 C 298.48563 591.3005 298.0451 607.0506 298.05274 625.7094 C 298.06037 644.3682 298.51615 665.947 298.74782 686.0627" stroke="#718791" stroke-linecap="round" stroke-linejoin="round" stroke-width="1"/>
      </g>
      <g id="Line_212">
        <path d="M 273.47616 569.489 L 235.1873 626.562 L 192.7607 690.5783" stroke="#718791" stroke-linecap="round" stroke-linejoin="round" stroke-width="1"/>
      </g>
      <g id="Line_211">
        <path d="M 1084.3285 574.1002 L 1084.0623 625.7094 L 1084.3491 687.022" stroke="#718791" stroke-linecap="round" stroke-linejoin="round" stroke-width="1"/>
      </g>
      <g id="Line_208">
        <path d="M 2303.809 364.0991 L 2389.9857 429.4682 L 2485.1456 501.1326" stroke="#927d72" stroke-linecap="round" stroke-linejoin="round" stroke-dasharray="8.0,5.0" stroke-width="1"/>
      </g>
      <g id="Line_206">
        <path d="M 2288.8803 372.1338 L 2325.9076 428.51945 L 2368.2273 492.9859" stroke="#927d72" stroke-linecap="round" stroke-linejoin="round" stroke-dasharray="8.0,5.0" stroke-width="1"/>
      </g>
      <g id="Line_204">
        <path d="M 2237.9033 372.01484 L 2200.217 428.51945 L 2157.1801 493.1009" stroke="#927d72" stroke-linecap="round" stroke-linejoin="round" stroke-dasharray="8.0,5.0" stroke-width="1"/>
      </g>
      <g id="Line_202">
        <path d="M 2263.3274 376.5805 L 2263.0623 427.7094 L 2263.3482 488.5417" stroke="#927d72" stroke-linecap="round" stroke-linejoin="round" stroke-dasharray="8.0,5.0" stroke-width="1"/>
      </g>
      <g id="Line_200">
        <path d="M 2223.1346 363.98137 L 2136.072 429.51186 L 2041.8072 501.02194" stroke="#718791" stroke-linecap="round" stroke-linejoin="round" stroke-dasharray="8.0,5.0" stroke-width="1"/>
      </g>
      <g id="Line_198">
        <path d="M 1724.8192 153.03693 L 1823.0426 185.87737 L 2103.2781 279.9213 L 2211.2901 316.0707" stroke="#927d72" stroke-linecap="round" stroke-linejoin="round" stroke-width="1"/>
      </g>
      <g id="Line_196">
        <path d="M 2787.3347 376.58054 L 2787.0783 427.7094 L 2787.3548 488.5417" stroke="#879072" stroke-linecap="round" stroke-linejoin="round" stroke-width="1"/>
      </g>
      <g id="Line_194">
        <path d="M 2827.807 364.1004 L 2914.0322 429.51186 L 3008.294 501.02154" stroke="#879072" stroke-linecap="round" stroke-linejoin="round" stroke-width="1"/>
      </g>
      <g id="Line_192">
        <path d="M 1346.331 376.58053 L 1346.0703 427.7094 L 1346.3515 488.5417" stroke="#927387" stroke-linecap="round" stroke-linejoin="round" stroke-width="1"/>
      </g>
      <g id="Line_191">
        <path d="M 1728.2263 145.4197 L 1828.93 163.25136 L 2621.5043 304.1186 L 2731.8784 323.68963" stroke="#718791" stroke-linecap="round" stroke-linejoin="round" stroke-width="1"/>
      </g>
      <g id="Line_190">
        <path d="M 1672.766 178.58054 L 1673.0223 229.7094 L 1672.7459 290.54168" stroke="#718791" stroke-linecap="round" stroke-linejoin="round" stroke-width="1"/>
      </g>
      <g id="Line_188">
        <path d="M 1628.0738 162.59332 L 1548.0794 211.2127 L 1479.7512 252.587 L 1391.0233 306.52558" stroke="#718791" stroke-linecap="round" stroke-linejoin="round" stroke-width="1"/>
      </g>
      <g id="Line_186">
        <path d="M 1306.1358 363.98232 L 1219.08 429.51186 L 1124.904 500.61403" stroke="#927387" stroke-linecap="round" stroke-linejoin="round" stroke-width="1"/>
      </g>
      <g id="Line_170">
        <path d="M 2761.9055 372.0157 L 2724.1956 428.56204 L 2681.1822 493.1017" stroke="#879072" stroke-linecap="round" stroke-linejoin="round" stroke-width="1"/>
      </g>
      <g id="Line_168">
        <path d="M 560.32334 574.5805 L 560.05354 625.7094 L 560.34455 686.5417" stroke="#718791" stroke-linecap="round" stroke-linejoin="round" stroke-width="1"/>
      </g>
      <g id="Line_166">
        <path d="M 534.90224 570.01444 L 497.18536 626.562 L 454.17914 691.1005" stroke="#718791" stroke-linecap="round" stroke-linejoin="round" stroke-width="1"/>
      </g>
      <g id="Line_164">
        <path d="M 2812.8737 372.13622 L 2849.8876 428.51945 L 2892.2213 492.98817" stroke="#879072" stroke-linecap="round" stroke-linejoin="round" stroke-width="1"/>
      </g>
      <g id="Line_162">
        <path d="M 1706.9282 367.9323 L 1768.1452 429.13756 L 1836.1807 497.1853" stroke="#927d72" stroke-linecap="round" stroke-linejoin="round" stroke-width="1"/>
      </g>
      <g id="Line_160">
        <path d="M 1686.6674 375.2526 L 1704.4945 427.9009 L 1724.8288 489.79513" stroke="#927d72" stroke-linecap="round" stroke-linejoin="round" stroke-width="1"/>
      </g>
      <g id="Line_158">
        <path d="M 1659.0495 375.36776 L 1642.0711 427.94295 L 1622.0736 489.7586" stroke="#927d72" stroke-linecap="round" stroke-linejoin="round" stroke-width="1"/>
      </g>
      <g id="Line_156">
        <path d="M 1638.5164 368.12596 L 1578.3993 429.1807 L 1510.8098 497.12293" stroke="#927d72" stroke-linecap="round" stroke-linejoin="round" stroke-width="1"/>
      </g>
      <g id="Line_131">
        <path d="M 639.4722 375.28966 L 657.039 427.94295 L 677.0307 489.75795" stroke="#718791" stroke-linecap="round" stroke-linejoin="round" stroke-width="1"/>
      </g>
      <g id="Line_129">
        <path d="M 611.8465 375.3304 L 594.5851 427.94295 L 574.2691 489.7946" stroke="#718791" stroke-linecap="round" stroke-linejoin="round" stroke-width="1"/>
      </g>
      <g id="Line_83">
        <path d="M 581.02036 360.5437 L 500.63224 409.2542 L 431.98804 450.69106 L 343.78324 504.1076" stroke="#718791" stroke-linecap="round" stroke-linejoin="round" stroke-width="1"/>
      </g>
      <g id="Line_81">
        <path d="M 1617.0867 146.07651 L 1524.0116 163.72266 L 784.8736 303.51224 L 681.0312 323.09726" stroke="#718791" stroke-linecap="round" stroke-linejoin="round" stroke-width="1"/>
      </g>
      <g id="Graphic_45">
        <ellipse cx="1672.5503" cy="135.56114" rx="56.6930036451333" ry="42.5197527338499" fill="#aaa"/>
        <ellipse cx="1672.5503" cy="135.56114" rx="56.6930036451333" ry="42.5197527338499" stroke="#919191" stroke-linecap="round" stroke-linejoin="round" stroke-width="1"/>
        <text transform="translate(1629.196 116.56114)" fill="white">
          <tspan font-family="Comic Sans MS" font-weight="bold" font-size="14" fill="white" x="16.106285" y="15" xml:space="preserve">Machine </tspan>
          <tspan font-family="Comic Sans MS" font-weight="bold" font-size="14" fill="white" x="15.326988" y="34" xml:space="preserve">Learning</tspan>
        </text>
      </g>
      <g id="Graphic_82">
        <ellipse cx="625.55034" cy="333.56114" rx="56.6930036451332" ry="42.5197527338499" fill="#caefff"/>
        <ellipse cx="625.55034" cy="333.56114" rx="56.6930036451332" ry="42.5197527338499" stroke="#718791" stroke-linecap="round" stroke-linejoin="round" stroke-width="1"/>
        <text transform="translate(582.196 325.56114)" fill="black">
          <tspan font-family="Comic Sans MS" font-size="12" fill="black" x="21.041832" y="13" xml:space="preserve">Problem</tspan>
        </text>
      </g>
      <g id="Graphic_177">
        <ellipse cx="1346.5503" cy="333.56114" rx="56.6930036451333" ry="42.5197527338499" fill="#ffcdef"/>
        <ellipse cx="1346.5503" cy="333.56114" rx="56.6930036451333" ry="42.5197527338499" stroke="#927387" stroke-linecap="round" stroke-linejoin="round" stroke-width="1"/>
        <text transform="translate(1303.196 325.56114)" fill="black">
          <tspan font-family="Comic Sans MS" font-size="12" fill="black" x="30.05648" y="13" xml:space="preserve">Data</tspan>
        </text>
      </g>
      <g id="Graphic_155">
        <ellipse cx="1672.5503" cy="333.56114" rx="56.6930036451333" ry="42.5197527338499" fill="#ffddcb"/>
        <ellipse cx="1672.5503" cy="333.56114" rx="56.6930036451333" ry="42.5197527338499" stroke="#927d72" stroke-linecap="round" stroke-linejoin="round" stroke-width="1"/>
        <text transform="translate(1629.196 325.56114)" fill="black">
          <tspan font-family="Comic Sans MS" font-size="12" fill="black" x="14.980309" y="13" xml:space="preserve">Evaluation</tspan>
        </text>
      </g>
      <g id="Graphic_199">
        <ellipse cx="2263.5503" cy="333.56114" rx="56.6930036451333" ry="42.5197527338499" fill="#ffd579"/>
        <path d="M 2303.6382 303.4952 C 2325.7783 320.10017 2325.7783 347.0221 2303.6382 363.62706 C 2281.4983 380.2321 2245.6024 380.2321 2223.4624 363.62706 C 2201.3224 347.0221 2201.3224 320.10017 2223.4624 303.4952 C 2245.6024 286.89017 2281.4983 286.89017 2303.6382 303.4952" stroke="#927d72" stroke-linecap="round" stroke-linejoin="round" stroke-dasharray="8.0,5.0" stroke-width="1"/>
        <text transform="translate(2220.196 325.56114)" fill="black">
          <tspan font-family="Comic Sans MS" font-size="12" fill="black" x="23.362144" y="13" xml:space="preserve">Theory</tspan>
        </text>
      </g>
      <g id="Graphic_201">
        <ellipse cx="2001.5503" cy="531.56114" rx="56.6930036451333" ry="42.5197527338499" fill="#ffd579"/>
        <path d="M 2041.6382 501.4952 C 2063.7783 518.1002 2063.7783 545.0221 2041.6382 561.62706 C 2019.4983 578.2321 1983.6024 578.2321 1961.4624 561.62706 C 1939.3224 545.0221 1939.3224 518.1002 1961.4624 501.4952 C 1983.6024 484.89017 2019.4983 484.89017 2041.6382 501.4952" stroke="#927d72" stroke-linecap="round" stroke-linejoin="round" stroke-dasharray="8.0,5.0" stroke-width="1"/>
        <text transform="translate(1958.196 523.56114)" fill="black">
          <tspan font-family="Comic Sans MS" font-size="12" fill="black" x="32.22738" y="13" xml:space="preserve">PAC</tspan>
        </text>
      </g>
      <g id="Graphic_205">
        <ellipse cx="2131.5503" cy="531.56114" rx="56.6930036451333" ry="42.5197527338499" fill="#ffd579"/>
        <path d="M 2171.6382 501.4952 C 2193.7783 518.1002 2193.7783 545.0221 2171.6382 561.62706 C 2149.4983 578.2321 2113.6024 578.2321 2091.4624 561.62706 C 2069.3224 545.0221 2069.3224 518.1002 2091.4624 501.4952 C 2113.6024 484.89017 2149.4983 484.89017 2171.6382 501.4952" stroke="#927d72" stroke-linecap="round" stroke-linejoin="round" stroke-dasharray="8.0,5.0" stroke-width="1"/>
        <text transform="translate(2088.196 523.56114)" fill="black">
          <tspan font-family="Comic Sans MS" font-size="12" fill="black" x="13.544762" y="13" xml:space="preserve">PAC-Bayes</tspan>
        </text>
      </g>
      <g id="Graphic_203">
        <ellipse cx="2263.5503" cy="531.56114" rx="56.6930036451333" ry="42.5197527338499" fill="#ffd579"/>
        <path d="M 2303.6382 501.4952 C 2325.7783 518.1002 2325.7783 545.0221 2303.6382 561.62706 C 2281.4983 578.2321 2245.6024 578.2321 2223.4624 561.62706 C 2201.3224 545.0221 2201.3224 518.1002 2223.4624 501.4952 C 2245.6024 484.89017 2281.4983 484.89017 2303.6382 501.4952" stroke="#927d72" stroke-linecap="round" stroke-linejoin="round" stroke-dasharray="8.0,5.0" stroke-width="1"/>
        <text transform="translate(2220.196 523.56114)" fill="black">
          <tspan font-family="Comic Sans MS" font-size="12" fill="black" x="5.3416367" y="13" xml:space="preserve">VC-Dimension</tspan>
        </text>
      </g>
      <g id="Graphic_207">
        <ellipse cx="2393.5503" cy="531.56114" rx="56.6930036451333" ry="42.5197527338499" fill="#ffd579"/>
        <path d="M 2433.6382 501.4952 C 2455.7783 518.1002 2455.7783 545.0221 2433.6382 561.62706 C 2411.4983 578.2321 2375.6024 578.2321 2353.4624 561.62706 C 2331.3224 545.0221 2331.3224 518.1002 2353.4624 501.4952 C 2375.6024 484.89017 2411.4983 484.89017 2433.6382 501.4952" stroke="#927d72" stroke-linecap="round" stroke-linejoin="round" stroke-dasharray="8.0,5.0" stroke-width="1"/>
        <text transform="translate(2350.196 515.56114)" fill="black">
          <tspan font-family="Comic Sans MS" font-size="12" fill="black" x="8.725426" y="13" xml:space="preserve">Compression </tspan>
          <tspan font-family="Comic Sans MS" font-size="12" fill="black" x="23.710777" y="29" xml:space="preserve">Bounds</tspan>
        </text>
      </g>
      <g id="Graphic_209">
        <ellipse cx="2525.5503" cy="531.56114" rx="56.6930036451333" ry="42.5197527338499" fill="#ffd579"/>
        <path d="M 2565.6382 501.4952 C 2587.7783 518.1002 2587.7783 545.0221 2565.6382 561.62706 C 2543.4983 578.2321 2507.6024 578.2321 2485.4624 561.62706 C 2463.3224 545.0221 2463.3224 518.1002 2485.4624 501.4952 C 2507.6024 484.89017 2543.4983 484.89017 2565.6382 501.4952" stroke="#927d72" stroke-linecap="round" stroke-linejoin="round" stroke-dasharray="8.0,5.0" stroke-width="1"/>
        <text transform="translate(2482.196 523.56114)" fill="black">
          <tspan font-family="Comic Sans MS" font-size="12" fill="black" x="10.081871" y="13" xml:space="preserve">Learnability</tspan>
        </text>
      </g>
      <g id="Graphic_153">
        <ellipse cx="2787.5503" cy="333.56114" rx="56.6930036451334" ry="42.5197527338499" fill="#eefecb"/>
        <ellipse cx="2787.5503" cy="333.56114" rx="56.6930036451334" ry="42.5197527338499" stroke="#879072" stroke-linecap="round" stroke-linejoin="round" stroke-width="1"/>
        <text transform="translate(2744.196 317.56114)" fill="black">
          <tspan font-family="Comic Sans MS" font-size="12" fill="black" x="7.163902" y="13" xml:space="preserve">Mathematics </tspan>
          <tspan font-family="Comic Sans MS" font-size="12" fill="black" x="18.115074" y="29" xml:space="preserve">Essential</tspan>
        </text>
      </g>
      <g id="Graphic_171">
        <ellipse cx="2655.5503" cy="531.56114" rx="56.6930036451334" ry="42.5197527338499" fill="#eefecb" fill-opacity=".8"/>
        <ellipse cx="2655.5503" cy="531.56114" rx="56.6930036451334" ry="42.5197527338499" stroke="#879072" stroke-linecap="round" stroke-linejoin="round" stroke-width="1"/>
        <text transform="translate(2612.196 523.56114)" fill="black">
          <tspan font-family="Comic Sans MS" font-size="12" fill="black" x="2.1775742" y="13" xml:space="preserve">Linear Algebra</tspan>
        </text>
      </g>
      <g id="Graphic_197">
        <ellipse cx="2787.5503" cy="531.56114" rx="56.6930036451334" ry="42.5197527338499" fill="#eefecb" fill-opacity=".8"/>
        <ellipse cx="2787.5503" cy="531.56114" rx="56.6930036451334" ry="42.5197527338499" stroke="#879072" stroke-linecap="round" stroke-linejoin="round" stroke-width="1"/>
        <text transform="translate(2744.196 523.56114)" fill="black">
          <tspan font-family="Comic Sans MS" font-size="12" fill="black" x="21.138512" y="13" xml:space="preserve">Calculus</tspan>
        </text>
      </g>
      <g id="Graphic_165">
        <ellipse cx="2917.5503" cy="531.56114" rx="56.6930036451333" ry="42.5197527338499" fill="#eefecb" fill-opacity=".8"/>
        <ellipse cx="2917.5503" cy="531.56114" rx="56.6930036451333" ry="42.5197527338499" stroke="#879072" stroke-linecap="round" stroke-linejoin="round" stroke-width="1"/>
        <text transform="translate(2874.196 523.56114)" fill="black">
          <tspan font-family="Comic Sans MS" font-size="12" fill="black" x="13.046715" y="13" xml:space="preserve">Probability</tspan>
        </text>
      </g>
      <g id="Graphic_195">
        <ellipse cx="3048.5503" cy="531.56114" rx="56.6930036451334" ry="42.5197527338499" fill="#eefecb" fill-opacity=".8"/>
        <ellipse cx="3048.5503" cy="531.56114" rx="56.6930036451334" ry="42.5197527338499" stroke="#879072" stroke-linecap="round" stroke-linejoin="round" stroke-width="1"/>
        <text transform="translate(3005.196 523.56114)" fill="black">
          <tspan font-family="Comic Sans MS" font-size="12" fill="black" x="15.355309" y="13" xml:space="preserve">Statistics</tspan>
        </text>
      </g>
      <g id="Graphic_187">
        <ellipse cx="1084.5503" cy="531.0808" rx="56.6930036451331" ry="42.5197527338499" fill="#ffcdef" fill-opacity=".8"/>
        <ellipse cx="1084.5503" cy="531.0808" rx="56.6930036451331" ry="42.5197527338499" stroke="#927387" stroke-linecap="round" stroke-linejoin="round" stroke-width="1"/>
        <text transform="translate(1041.196 523.0808)" fill="black">
          <tspan font-family="Comic Sans MS" font-size="12" fill="black" x="18.317223" y="13" xml:space="preserve">Features</tspan>
        </text>
      </g>
      <g id="Graphic_193">
        <ellipse cx="1346.5503" cy="531.56114" rx="56.6930036451333" ry="42.5197527338499" fill="#ffcdef" fill-opacity=".8"/>
        <ellipse cx="1346.5503" cy="531.56114" rx="56.6930036451333" ry="42.5197527338499" stroke="#927387" stroke-linecap="round" stroke-linejoin="round" stroke-width="1"/>
        <text transform="translate(1303.196 523.56114)" fill="black">
          <tspan font-family="Comic Sans MS" font-size="12" fill="black" x="4.597496" y="13" xml:space="preserve">Preprocessing</tspan>
        </text>
      </g>
      <g id="Graphic_225">
        <ellipse cx="1346.5503" cy="729.5611" rx="56.6930036451333" ry="42.5197527338498" fill="#ffcdef" fill-opacity=".8"/>
        <ellipse cx="1346.5503" cy="729.5611" rx="56.6930036451333" ry="42.5197527338498" stroke="#927387" stroke-linecap="round" stroke-linejoin="round" stroke-width="1"/>
        <text transform="translate(1303.196 713.5611)" fill="black">
          <tspan font-family="Comic Sans MS" font-size="12" fill="black" x="30.05648" y="13" xml:space="preserve">Data </tspan>
          <tspan font-family="Comic Sans MS" font-size="12" fill="black" x="12.384605" y="29" xml:space="preserve">Imputation</tspan>
        </text>
      </g>
      <g id="Graphic_227">
        <ellipse cx="1476.5503" cy="729.5611" rx="56.6930036451333" ry="42.5197527338498" fill="#ffcdef" fill-opacity=".8"/>
        <ellipse cx="1476.5503" cy="729.5611" rx="56.6930036451333" ry="42.5197527338498" stroke="#927387" stroke-linecap="round" stroke-linejoin="round" stroke-width="1"/>
        <text transform="translate(1433.196 721.5611)" fill="black">
          <tspan font-family="Comic Sans MS" font-size="12" fill="black" x="4.37484" y="13" xml:space="preserve">Normalization</tspan>
        </text>
      </g>
      <g id="Graphic_157">
        <ellipse cx="1476.5503" cy="531.56114" rx="56.6930036451333" ry="42.5197527338499" fill="#ffddcb" fill-opacity=".8"/>
        <ellipse cx="1476.5503" cy="531.56114" rx="56.6930036451333" ry="42.5197527338499" stroke="#927d72" stroke-linecap="round" stroke-linejoin="round" stroke-width="1"/>
        <text transform="translate(1433.196 515.56114)" fill="black">
          <tspan font-family="Comic Sans MS" font-size="12" fill="black" x="7.732262" y="13" xml:space="preserve">Performance </tspan>
          <tspan font-family="Comic Sans MS" font-size="12" fill="black" x="16.5682" y="29" xml:space="preserve">Measures</tspan>
        </text>
      </g>
      <g id="Graphic_159">
        <ellipse cx="1608.5503" cy="531.56114" rx="56.6930036451334" ry="42.5197527338499" fill="#ffddcb" fill-opacity=".8"/>
        <ellipse cx="1608.5503" cy="531.56114" rx="56.6930036451334" ry="42.5197527338499" stroke="#927d72" stroke-linecap="round" stroke-linejoin="round" stroke-width="1"/>
        <text transform="translate(1565.196 515.56114)" fill="black">
          <tspan font-family="Comic Sans MS" font-size="12" fill="black" x="27.80355" y="13" xml:space="preserve">Error </tspan>
          <tspan font-family="Comic Sans MS" font-size="12" fill="black" x="13.641441" y="29" xml:space="preserve">Estimation</tspan>
        </text>
      </g>
      <g id="Graphic_161">
        <ellipse cx="1738.5503" cy="531.56114" rx="56.6930036451334" ry="42.5197527338499" fill="#ffddcb" fill-opacity=".8"/>
        <ellipse cx="1738.5503" cy="531.56114" rx="56.6930036451334" ry="42.5197527338499" stroke="#927d72" stroke-linecap="round" stroke-linejoin="round" stroke-width="1"/>
        <text transform="translate(1695.196 515.56114)" fill="black">
          <tspan font-family="Comic Sans MS" font-size="12" fill="black" x="13.56234" y="13" xml:space="preserve">Statistical </tspan>
          <tspan font-family="Comic Sans MS" font-size="12" fill="black" x="9.112144" y="29" xml:space="preserve">Significance</tspan>
        </text>
      </g>
      <g id="Graphic_163">
        <ellipse cx="1870.5503" cy="531.56114" rx="56.6930036451333" ry="42.5197527338499" fill="#ffddcb" fill-opacity=".8"/>
        <ellipse cx="1870.5503" cy="531.56114" rx="56.6930036451333" ry="42.5197527338499" stroke="#927d72" stroke-linecap="round" stroke-linejoin="round" stroke-width="1"/>
        <text transform="translate(1827.196 515.56114)" fill="black">
          <tspan font-family="Comic Sans MS" font-size="12" fill="black" x="6.375816" y="13" xml:space="preserve">Experimental </tspan>
          <tspan font-family="Comic Sans MS" font-size="12" fill="black" x="12.42855" y="29" xml:space="preserve">Framework</tspan>
        </text>
      </g>
      <g id="Graphic_167">
        <ellipse cx="428.55034" cy="729.5611" rx="56.6930036451332" ry="42.5197527338498" fill="#caefff" fill-opacity=".8"/>
        <ellipse cx="428.55034" cy="729.5611" rx="56.6930036451332" ry="42.5197527338498" stroke="#718791" stroke-linecap="round" stroke-linejoin="round" stroke-width="1"/>
        <text transform="translate(385.196 721.5611)" fill="black">
          <tspan font-family="Comic Sans MS" font-size="12" fill="black" x="5.813316" y="13" xml:space="preserve">Classification</tspan>
        </text>
      </g>
      <g id="Graphic_169">
        <ellipse cx="560.55034" cy="729.5611" rx="56.6930036451331" ry="42.5197527338498" fill="#caefff" fill-opacity=".8"/>
        <ellipse cx="560.55034" cy="729.5611" rx="56.6930036451331" ry="42.5197527338498" stroke="#718791" stroke-linecap="round" stroke-linejoin="round" stroke-width="1"/>
        <text transform="translate(517.196 721.5611)" fill="black">
          <tspan font-family="Comic Sans MS" font-size="12" fill="black" x="13.122887" y="13" xml:space="preserve">Regression</tspan>
        </text>
      </g>
      <g id="Graphic_52">
        <ellipse cx="299.24325" cy="531.0808" rx="56.6930036451332" ry="42.5197527338499" fill="#caefff" fill-opacity=".8"/>
        <ellipse cx="299.24325" cy="531.0808" rx="56.6930036451332" ry="42.5197527338499" stroke="#718791" stroke-linecap="round" stroke-linejoin="round" stroke-width="1"/>
        <text transform="translate(255.88892 523.0808)" fill="black">
          <tspan font-family="Comic Sans MS" font-size="12" fill="black" x="6.041832" y="13" xml:space="preserve">Unsupervised</tspan>
        </text>
      </g>
      <g id="Graphic_213">
        <ellipse cx="167.24325" cy="729.0808" rx="56.6930036451332" ry="42.5197527338498" fill="#caefff" fill-opacity=".8"/>
        <ellipse cx="167.24325" cy="729.0808" rx="56.6930036451332" ry="42.5197527338498" stroke="#718791" stroke-linecap="round" stroke-linejoin="round" stroke-width="1"/>
        <text transform="translate(123.88892 721.0808)" fill="black">
          <tspan font-family="Comic Sans MS" font-size="12" fill="black" x="15.050621" y="13" xml:space="preserve">Clustering</tspan>
        </text>
      </g>
      <g id="Graphic_215">
        <ellipse cx="299.24325" cy="729.0808" rx="56.6930036451332" ry="42.5197527338498" fill="#caefff" fill-opacity=".8"/>
        <ellipse cx="299.24325" cy="729.0808" rx="56.6930036451332" ry="42.5197527338498" stroke="#718791" stroke-linecap="round" stroke-linejoin="round" stroke-width="1"/>
        <text transform="translate(255.88892 713.0808)" fill="black">
          <tspan font-family="Comic Sans MS" font-size="12" fill="black" x="3.0096054" y="13" xml:space="preserve">Dimensionality </tspan>
          <tspan font-family="Comic Sans MS" font-size="12" fill="black" x="15.765465" y="29" xml:space="preserve">Reduction</tspan>
        </text>
      </g>
      <g id="Graphic_233">
        <ellipse cx="952.5503" cy="730.04145" rx="56.6930036451332" ry="42.5197527338498" fill="#ffcdef" fill-opacity=".8"/>
        <ellipse cx="952.5503" cy="730.04145" rx="56.6930036451332" ry="42.5197527338498" stroke="#927387" stroke-linecap="round" stroke-linejoin="round" stroke-width="1"/>
        <text transform="translate(909.196 722.04145)" fill="black">
          <tspan font-family="Comic Sans MS" font-size="12" fill="black" x="18.698082" y="13" xml:space="preserve">Encoding</tspan>
        </text>
      </g>
      <g id="Graphic_185">
        <ellipse cx="1084.5503" cy="730.04145" rx="56.6930036451331" ry="42.5197527338498" fill="#ffcdef" fill-opacity=".8"/>
        <ellipse cx="1084.5503" cy="730.04145" rx="56.6930036451331" ry="42.5197527338498" stroke="#927387" stroke-linecap="round" stroke-linejoin="round" stroke-width="1"/>
        <text transform="translate(1041.196 714.04145)" fill="black">
          <tspan font-family="Comic Sans MS" font-size="12" fill="black" x="21.23812" y="13" xml:space="preserve">Feature </tspan>
          <tspan font-family="Comic Sans MS" font-size="12" fill="black" x="17.089684" y="29" xml:space="preserve">Selection</tspan>
        </text>
      </g>
      <g id="Graphic_231">
        <ellipse cx="1214.5503" cy="729.5611" rx="56.6930036451333" ry="42.5197527338498" fill="#ffcdef" fill-opacity=".8"/>
        <ellipse cx="1214.5503" cy="729.5611" rx="56.6930036451333" ry="42.5197527338498" stroke="#927387" stroke-linecap="round" stroke-linejoin="round" stroke-width="1"/>
        <text transform="translate(1171.196 713.5611)" fill="black">
          <tspan font-family="Comic Sans MS" font-size="12" fill="black" x="21.23812" y="13" xml:space="preserve">Feature </tspan>
          <tspan font-family="Comic Sans MS" font-size="12" fill="black" x="10.995934" y="29" xml:space="preserve">Engineering</tspan>
        </text>
      </g>
      <g id="Graphic_130">
        <ellipse cx="560.55034" cy="531.56114" rx="56.6930036451331" ry="42.5197527338499" fill="#caefff" fill-opacity=".8"/>
        <ellipse cx="560.55034" cy="531.56114" rx="56.6930036451331" ry="42.5197527338499" stroke="#718791" stroke-linecap="round" stroke-linejoin="round" stroke-width="1"/>
        <text transform="translate(517.196 523.56114)" fill="black">
          <tspan font-family="Comic Sans MS" font-size="12" fill="black" x="12.364098" y="13" xml:space="preserve">Supervised</tspan>
        </text>
      </g>
      <g id="Graphic_132">
        <ellipse cx="690.5503" cy="531.56114" rx="56.6930036451331" ry="42.5197527338499" fill="#caefff" fill-opacity=".8"/>
        <ellipse cx="690.5503" cy="531.56114" rx="56.6930036451331" ry="42.5197527338499" stroke="#718791" stroke-linecap="round" stroke-linejoin="round" stroke-width="1"/>
        <text transform="translate(647.196 523.56114)" fill="black">
          <tspan font-family="Comic Sans MS" font-size="12" fill="black" x="2.1014023" y="13" xml:space="preserve">Reinforcement</tspan>
        </text>
      </g>
      <g id="Graphic_221">
        <ellipse cx="690.5503" cy="729.5611" rx="56.6930036451331" ry="42.5197527338498" fill="#caefff" fill-opacity=".8"/>
        <ellipse cx="690.5503" cy="729.5611" rx="56.6930036451331" ry="42.5197527338498" stroke="#718791" stroke-linecap="round" stroke-linejoin="round" stroke-width="1"/>
        <text transform="translate(647.196 721.5611)" fill="black">
          <tspan font-family="Comic Sans MS" font-size="12" fill="black" x="7.585777" y="13" xml:space="preserve">Model-based</tspan>
        </text>
      </g>
      <g id="Graphic_223">
        <ellipse cx="821.5503" cy="729.5611" rx="56.6930036451331" ry="42.5197527338498" fill="#caefff" fill-opacity=".8"/>
        <ellipse cx="821.5503" cy="729.5611" rx="56.6930036451331" ry="42.5197527338498" stroke="#718791" stroke-linecap="round" stroke-linejoin="round" stroke-width="1"/>
        <text transform="translate(778.196 721.5611)" fill="black">
          <tspan font-family="Comic Sans MS" font-size="12" fill="black" x="11.441246" y="13" xml:space="preserve">Model-free</tspan>
        </text>
      </g>
    </g>
  </g>
</svg>
